<svg xmlns="http://www.w3.org/2000/svg" width="1200" height="630" viewBox="0 0 1200 630" font-family="Arial, Helvetica, sans-serif">
  <defs>
    <linearGradient id="ringGlow" x1="258" y1="588" x2="566" y2="240" gradientUnits="userSpaceOnUse">
      <stop stop-color="#3B82F6"/><stop offset="1" stop-color="#06B6D4"/>
    </linearGradient>
    <radialGradient id="glowA" cx="0" cy="0" r="1" gradientUnits="userSpaceOnUse" gradientTransform="translate(820 150) scale(360)">
      <stop stop-color="#3B82F6" stop-opacity="0.16"/><stop offset="1" stop-color="#3B82F6" stop-opacity="0"/>
    </radialGradient>
    <radialGradient id="glowB" cx="0" cy="0" r="1" gradientUnits="userSpaceOnUse" gradientTransform="translate(360 520) scale(320)">
      <stop stop-color="#06B6D4" stop-opacity="0.12"/><stop offset="1" stop-color="#06B6D4" stop-opacity="0"/>
    </radialGradient>
  </defs>

  <rect width="1200" height="630" fill="#0A0F1C"/>
  <rect width="1200" height="630" fill="url(#glowA)"/>
  <rect width="1200" height="630" fill="url(#glowB)"/>

  <!-- Badge, centred upper -->
  <g transform="translate(443.92,91.5) scale(0.41958)">
    <circle cx="372" cy="342" r="194" fill="#111827" stroke="#2D3A4F" stroke-width="18"/>
    <circle cx="372" cy="342" r="236" fill="none" stroke="rgba(59,130,246,0.16)" stroke-width="10"/>
    <circle cx="372" cy="342" r="274" fill="none" stroke="rgba(6,182,212,0.10)" stroke-width="8"/>
    <g transform="translate(247.02,138.02) scale(0.52,0.62)">
      <path d="M454 248C428 231 399 224 370 224C323 224 287 248 287 286C287 319 314 336 355 345C402 355 422 366 422 390C422 417 399 434 364 434C330 434 298 423 269 398" fill="none" stroke="#F8FAFC" stroke-width="45" stroke-linecap="round" stroke-linejoin="round"/>
    </g>
    <path d="M253 272L281 412L309 338L337 412L365 272" fill="none" stroke="url(#ringGlow)" stroke-width="30" stroke-linecap="round" stroke-linejoin="round"/>
    <circle cx="521" cy="217" r="16" fill="#06B6D4"/>
    <circle cx="553" cy="190" r="14" fill="#06B6D4" fill-opacity="0.7"/>
    <circle cx="582" cy="166" r="12" fill="#06B6D4" fill-opacity="0.45"/>
  </g>

  <!-- Wordmark + tagline, centred -->
  <text x="600" y="450" text-anchor="middle" fill="#FFFFFF" font-size="62" font-weight="bold">Wickham Services Ltd</text>
  <text x="600" y="505" text-anchor="middle" fill="#22D3EE" font-size="24" font-weight="bold" letter-spacing="3">RESPONSIVE &#183; VISIBLE &#183; DEPENDABLE</text>
  <text x="600" y="556" text-anchor="middle" fill="#94A3B8" font-size="22">wickhamservices.co.uk</text>
</svg>
